<?xml version="1.0" standalone="no"?><!DOCTYPE svg PUBLIC "-//W3C//DTD SVG 1.1//EN" "http://www.w3.org/Graphics/SVG/1.1/DTD/svg11.dtd"><svg t="1608563013547" class="icon" viewBox="0 0 1024 1024" version="1.1" xmlns="http://www.w3.org/2000/svg" p-id="4013" xmlns:xlink="http://www.w3.org/1999/xlink" width="200" height="200"><defs><style type="text/css"></style></defs><path d="M222.5 593.8c-43.8 0-79.4-35.6-79.4-79.4 0-43.8 35.6-79.4 79.4-79.4H806c43.8 0 79.4 35.6 79.4 79.4 0 43.8-35.6 79.4-79.4 79.4H222.5z" fill="#E95655" p-id="4014"></path><path d="M806 452.9c33.8 0 61.5 27.7 61.5 61.5s-27.7 61.5-61.5 61.5H222.5c-33.8 0-61.5-27.7-61.5-61.5s27.7-61.5 61.5-61.5H806m0-35.7H222.5c-53.6 0-97.2 43.6-97.2 97.2s43.6 97.2 97.2 97.2H806c53.6 0 97.2-43.6 97.2-97.2s-43.6-97.2-97.2-97.2z" fill="#3D2C1F" p-id="4015"></path><path d="M895.2 327.4c-5-71.8-100.6-155.7-381.7-155.7-257.5 0-375.3 83.9-381.6 155.7-28.8 9.1-49.8 36.1-49.8 67.7 0 39.1 32 71 71 71h720.7c39.1 0 71-32 71-71 0.1-31.6-20.9-58.6-49.6-67.7z" fill="#93D1E9" p-id="4016"></path><path d="M895.2 327.4c-5-71.8-100.6-155.7-381.7-155.7-257.5 0-375.3 83.9-381.6 155.7-28.8 9.1-49.8 36.1-49.8 67.7 0 39.1 32 71 71 71h720.7c39.1 0 71-32 71-71 0.1-31.6-20.9-58.6-49.6-67.7z" fill="#93D1E9" p-id="4017"></path><path d="M873.8 484H153.1c-49 0-88.9-39.9-88.9-88.9 0-35.1 20.3-66.2 51.5-80.6 17.2-81.7 144-160.6 397.7-160.6 330.3 0 388.5 111.3 398 160.8 31.1 14.5 51.3 45.6 51.3 80.5 0 48.9-39.9 88.8-88.9 88.8zM513.5 189.6c-258 0-358.9 83.3-363.8 139.4-0.6 7.2-5.5 13.3-12.4 15.5-22 6.9-37.3 27.8-37.3 50.7 0 29.3 23.8 53.2 53.2 53.2h720.7c29.3 0 53.2-23.8 53.2-53.2 0-22.9-15.3-43.7-37.2-50.7-7-2.2-11.9-8.5-12.4-15.8-4.7-64.2-102.6-139.1-364-139.1z" fill="#3D2C1F" p-id="4018"></path><path d="M895.2 327.4c-3-43.1-33.5-79.6-122.7-110.6 34.1 23.7 76.9 48.4 62.4 119.2 21.3 5.1 27.8 19.2 27.9 36.2 0.1 24.1-33.4 34.9-72.5 34.9h-703c10.6 26 36.1 59.2 65.8 59.2h720.7c39.1 0 71-32 71-71 0.1-31.8-20.9-58.8-49.6-67.9z" fill="#6BAED4" p-id="4019"></path><path d="M873.8 484H153.1c-49 0-88.9-39.9-88.9-88.9 0-35.1 20.3-66.2 51.5-80.6 17.2-81.7 144-160.6 397.7-160.6 330.3 0 388.5 111.3 398 160.8 31.1 14.5 51.3 45.6 51.3 80.5 0 48.9-39.9 88.8-88.9 88.8zM513.5 189.6c-258 0-358.9 83.3-363.8 139.4-0.6 7.2-5.5 13.3-12.4 15.5-22 6.9-37.3 27.8-37.3 50.7 0 29.3 23.8 53.2 53.2 53.2h720.7c29.3 0 53.2-23.8 53.2-53.2 0-22.9-15.3-43.7-37.2-50.7-7-2.2-11.9-8.5-12.4-15.8-4.7-64.2-102.6-139.1-364-139.1z" fill="#3D2C1F" p-id="4020"></path><path d="M131.8 697.8c5 71.8 100.6 155.7 381.7 155.7 257.5 0 375.3-83.9 381.6-155.7 28.8-9.1 49.8-36.1 49.8-67.7 0-39.1-32-71-71-71H153.1c-39.1 0-71 32-71 71 0 31.6 21 58.6 49.7 67.7z" fill="#93D1E9" p-id="4021"></path><path d="M893.6 561.9c0.2 2 0.3 4 0.3 6 0 31.7-14.8 73.5-43.5 82.6-6.3 71.7-130.4 140.8-387.9 140.8-168.1 0-269.8-30-325.5-69.5 23.2 65.2 126.4 131.7 376.5 131.7 257.5 0 375.3-83.9 381.6-155.7 28.8-9.1 49.8-36.1 49.8-67.7 0-32.3-21.8-59.6-51.3-68.2z" fill="#6BAED4" p-id="4022"></path><path d="M513.5 871.3c-330.3 0-388.5-111.3-398-160.8C84.4 696.1 64.2 665 64.2 630c0-49 39.9-88.9 88.9-88.9h720.7c49 0 88.9 39.9 88.9 88.9 0 35.1-20.3 66.2-51.5 80.6-17.2 81.8-143.9 160.7-397.7 160.7zM153.1 576.9c-29.3 0-53.2 23.8-53.2 53.2 0 22.9 15.3 43.7 37.2 50.7 7 2.2 11.9 8.5 12.4 15.8C154 760.8 252 835.7 513.4 835.7c258 0 358.9-83.3 363.8-139.4 0.6-7.2 5.5-13.3 12.4-15.5 22-6.9 37.3-27.8 37.3-50.7 0-29.3-23.8-53.2-53.2-53.2H153.1z" fill="#3D2C1F" p-id="4023"></path><path d="M739.5 351.2H128.4c-9.9 0-17.9-8-17.9-17.9 0-9.9 8-17.9 17.9-17.9h611.2c9.9 0 17.9 8 17.9 17.9-0.1 9.9-8.1 17.9-18 17.9z" fill="#3D2C1F" p-id="4024"></path><path d="M911.7 701.5H300.6c-9.9 0-17.9-8-17.9-17.9 0-9.9 8-17.9 17.9-17.9h611.2c9.9 0 17.9 8 17.9 17.9-0.1 9.9-8.1 17.9-18 17.9z" fill="#3D2C1F" p-id="4025"></path><path d="M233.1 308.6c-5.5 0-11-2.6-14.5-7.4-5.8-8-4-19.2 4-25C265.5 245.1 343.2 208 470 208h1.3c9.9 0 17.8 8 17.8 17.9 0 9.9-8 17.8-17.9 17.8H470c-123.4 0-194.8 38.4-226.5 61.4-3.1 2.4-6.7 3.5-10.4 3.5z" fill="#FFFFFF" p-id="4026"></path><path d="M539.5 227.8m-20.8 0a20.8 20.8 0 1 0 41.6 0 20.8 20.8 0 1 0-41.6 0Z" fill="#FFFFFF" p-id="4027"></path><path d="M298.8 631h-0.8c-74.6-3.2-159.6 0-160.4 0-9.9 0.1-18.2-7.3-18.5-17.2-0.4-9.9 7.3-18.2 17.2-18.5 0.9 0 87.2-3.3 163.3 0 9.9 0.4 17.5 8.8 17.1 18.6-0.5 9.6-8.4 17.1-17.9 17.1z" fill="#FFFFFF" p-id="4028"></path></svg>